# xmcd
#
# Track frame offsets:
# 150
# 13099
# 30550
# 45998
# 64858
# 81104
# 93848
# 106994
# 127238
# 145585
# 161387
# 178217
# 191712
# 206814
# 222348
# 242444
# 258685
# 273795
# 291621
# 303553
#
# Disc length: 4289 seconds
#
#
# Revision: 0
# Processed by: cddbd v1.5.1PL0 Copyright (c) Steve Scherf et al.
# Submitted via: FreeRIP 2.942 
#
DISCID=2810bf14
DTITLE=LOURENCO E LOURIVAL - AS 20 MAIS 
DYEAR=1900
DGENRE=Country
TTITLE0=A VINGANCA DO CACADOR
TTITLE1=FRANGUINHO NA PANELA
TTITLE2=MEU REINO ENCANTADO
TTITLE3=MAIS UM NA FILA
TTITLE4=O TELEFONE CHORA
TTITLE5=FORRO DO PUXA TETA
TTITLE6=O MENINO CACADOR
TTITLE7=OS TRES BOIADEIROS JAPONESES
TTITLE8=PARCEIRO FIEL
TTITLE9=ULTIMA CARTA
TTITLE10=CANGA DO TEMPO
TTITLE11=ANEL DE NOIVADO
TTITLE12=RAINHA DO PARANA
TTITLE13=BURRO INOCENTE
TTITLE14=A SEMENTINHA
TTITLE15=A CRUZ DO CAMINHO
TTITLE16=SE AINDA EXITE AMOR
TTITLE17=O PRECO DA MENTIRA
TTITLE18=AMOR INOCENTE
TTITLE19=VELHA PORTEIRA
EXTD=
EXTT0=
EXTT1=
EXTT2=
EXTT3=
EXTT4=
EXTT5=
EXTT6=
EXTT7=
EXTT8=
EXTT9=
EXTT10=
EXTT11=
EXTT12=
EXTT13=
EXTT14=
EXTT15=
EXTT16=
EXTT17=
EXTT18=
EXTT19=
PLAYORDER=
